<?xml version="1.0" encoding="utf-8"?>
<!-- Generator: Adobe Illustrator 26.2.1, SVG Export Plug-In . SVG Version: 6.00 Build 0)  -->
<svg version="1.1" xmlns="http://www.w3.org/2000/svg" xmlns:xlink="http://www.w3.org/1999/xlink" x="0px" y="0px"
	 viewBox="0 0 30 30" style="enable-background:new 0 0 30 30;" xml:space="preserve">
<style type="text/css">
	.st0{display:none;}
	.st1{display:inline;fill:#505050;}
	.st2{display:inline;fill:#F5F5F5;}
	.st3{fill:#F5F5F5;}
</style>
<g id="page" class="st0">
	<path class="st1" d="M8,22.5C8,22.2,7.8,22,7.5,22c-1.3,0-2.7,0-4,0C3.2,22,3,22.2,3,22.5c0,1.3,0,2.7,0,4C3,26.8,3.2,27,3.5,27
		c1.3,0,2.7,0,4,0c0.1,0,0.2-0.1,0.3-0.1c0,0,0,0,0,0c0,0,0,0,0,0C7.9,26.7,8,26.6,8,26.5C8,25.2,8,23.8,8,22.5z M7,26c-1,0-2,0-3,0
		c0-1,0-2,0-3c1,0,2,0,3,0C7,24,7,25,7,26z"/>
	<path class="st1" d="M27,22.5c0-0.3-0.2-0.5-0.5-0.5c-1.3,0-2.7,0-4,0c-0.3,0-0.5,0.2-0.5,0.5c0,1.3,0,2.7,0,4
		c0,0.3,0.2,0.5,0.5,0.5c1.3,0,2.7,0,4,0c0.1,0,0.2-0.1,0.3-0.1c0,0,0,0,0,0c0,0,0,0,0,0c0.1-0.1,0.1-0.2,0.1-0.3
		C27,25.2,27,23.8,27,22.5z M26,26c-1,0-2,0-3,0c0-1,0-2,0-3c1,0,2,0,3,0C26,24,26,25,26,26z"/>
	<path class="st1" d="M17.5,22.5c0-0.3-0.2-0.5-0.5-0.5c-1.3,0-2.7,0-4,0c-0.3,0-0.5,0.2-0.5,0.5c0,1.3,0,2.7,0,4
		c0,0.3,0.2,0.5,0.5,0.5c1.3,0,2.7,0,4,0c0.1,0,0.2-0.1,0.3-0.1c0,0,0,0,0,0c0,0,0,0,0,0c0.1-0.1,0.1-0.2,0.1-0.3
		C17.5,25.2,17.5,23.8,17.5,22.5z M16.5,26c-1,0-2,0-3,0c0-1,0-2,0-3c1,0,2,0,3,0C16.5,24,16.5,25,16.5,26z"/>
	<path class="st1" d="M8,3.5C8,3.2,7.8,3,7.5,3c-1.3,0-2.7,0-4,0C3.2,3,3,3.2,3,3.5c0,1.3,0,2.7,0,4C3,7.8,3.2,8,3.5,8
		c1.3,0,2.7,0,4,0c0.1,0,0.2-0.1,0.3-0.1c0,0,0,0,0,0c0,0,0,0,0,0C7.9,7.7,8,7.6,8,7.5C8,6.2,8,4.8,8,3.5z M7,7C6,7,5,7,4,7
		c0-1,0-2,0-3c1,0,2,0,3,0C7,5,7,6,7,7z"/>
	<path class="st1" d="M27,3.5C27,3.2,26.8,3,26.5,3c-1.3,0-2.7,0-4,0C22.2,3,22,3.2,22,3.5c0,1.3,0,2.7,0,4C22,7.8,22.2,8,22.5,8
		c1.3,0,2.7,0,4,0c0.1,0,0.2-0.1,0.3-0.1c0,0,0,0,0,0c0,0,0,0,0,0C26.9,7.7,27,7.6,27,7.5C27,6.2,27,4.8,27,3.5z M26,7c-1,0-2,0-3,0
		c0-1,0-2,0-3c1,0,2,0,3,0C26,5,26,6,26,7z"/>
	<path class="st1" d="M17.5,3.5C17.5,3.2,17.3,3,17,3c-1.3,0-2.7,0-4,0c-0.3,0-0.5,0.2-0.5,0.5c0,1.3,0,2.7,0,4
		C12.5,7.8,12.7,8,13,8c1.3,0,2.7,0,4,0c0.1,0,0.2-0.1,0.3-0.1c0,0,0,0,0,0c0,0,0,0,0,0c0.1-0.1,0.1-0.2,0.1-0.3
		C17.5,6.2,17.5,4.8,17.5,3.5z M16.5,7c-1,0-2,0-3,0c0-1,0-2,0-3c1,0,2,0,3,0C16.5,5,16.5,6,16.5,7z"/>
	<path class="st1" d="M8,13c0-0.3-0.2-0.5-0.5-0.5c-1.3,0-2.7,0-4,0C3.2,12.5,3,12.7,3,13c0,1.3,0,2.7,0,4c0,0.3,0.2,0.5,0.5,0.5
		c1.3,0,2.7,0,4,0c0.1,0,0.2-0.1,0.3-0.1c0,0,0,0,0,0c0,0,0,0,0,0C7.9,17.2,8,17.1,8,17C8,15.7,8,14.3,8,13z M7,16.5c-1,0-2,0-3,0
		c0-1,0-2,0-3c1,0,2,0,3,0C7,14.5,7,15.5,7,16.5z"/>
	<path class="st1" d="M27,13c0-0.3-0.2-0.5-0.5-0.5c-1.3,0-2.7,0-4,0c-0.3,0-0.5,0.2-0.5,0.5c0,1.3,0,2.7,0,4c0,0.3,0.2,0.5,0.5,0.5
		c1.3,0,2.7,0,4,0c0.1,0,0.2-0.1,0.3-0.1c0,0,0,0,0,0c0,0,0,0,0,0c0.1-0.1,0.1-0.2,0.1-0.3C27,15.7,27,14.3,27,13z M26,16.5
		c-1,0-2,0-3,0c0-1,0-2,0-3c1,0,2,0,3,0C26,14.5,26,15.5,26,16.5z"/>
	<path class="st1" d="M17.5,13c0-0.3-0.2-0.5-0.5-0.5c-1.3,0-2.7,0-4,0c-0.3,0-0.5,0.2-0.5,0.5c0,1.3,0,2.7,0,4
		c0,0.3,0.2,0.5,0.5,0.5c1.3,0,2.7,0,4,0c0.1,0,0.2-0.1,0.3-0.1c0,0,0,0,0,0c0,0,0,0,0,0c0.1-0.1,0.1-0.2,0.1-0.3
		C17.5,15.7,17.5,14.3,17.5,13z M16.5,16.5c-1,0-2,0-3,0c0-1,0-2,0-3c1,0,2,0,3,0C16.5,14.5,16.5,15.5,16.5,16.5z"/>
</g>
<g id="arrow" class="st0">
	<path class="st1" d="M27,15C27,15,27,15,27,15C27,15,27,15,27,15C27,15,27,15,27,15c0-0.1,0-0.1,0-0.2c0,0,0,0,0,0
		c0-0.1-0.1-0.2-0.2-0.2c-5.3-5.3-2.4-2.4-7.8-7.8c-0.5-0.5-1.2,0.3-0.7,0.7c5.1,5.1,2.7,2.7,6.9,6.9c-7.2,0-14.6,0-21.8,0
		c-0.6,0-0.6,1,0,1c7.2,0,14.6,0,21.8,0c-4.2,4.2-1.9,1.9-6.9,6.9c-0.5,0.5,0.3,1.2,0.7,0.7c5.4-5.4,2.4-2.4,7.8-7.8
		c0.1-0.1,0.1-0.1,0.2-0.2c0,0,0,0,0,0C27,15.1,27,15.1,27,15z"/>
</g>
<g id="down" class="st0">
	<path class="st1" d="M26.1,9.4c-1.8,1.8-3.6,3.6-5.4,5.5c-1.4,1.4-2.8,2.8-4.1,4.2c-0.3,0.3-1.2,1.1-1.5,1.6
		c-0.3-0.5-1.3-1.3-1.6-1.6c-1.3-1.3-2.6-2.6-3.8-3.8c-1.9-1.9-3.8-3.8-5.8-5.8c-0.5-0.5-1.2,0.3-0.7,0.7C7,14,10.8,17.8,14.7,21.6
		c0.2,0.2,0.5,0.2,0.7,0c3.8-3.9,7.6-7.7,11.5-11.6C27.3,9.6,26.6,8.9,26.1,9.4z"/>
</g>
<g id="website-white" class="st0">
	<path class="st2" d="M20,5.4H5c-1.1,0-2,0.9-2,2v11c0,1.1,0.9,2,2,2h13.1v-6.8c0-1.1,0.9-2,2-2H22V7.4C22,6.3,21.1,5.4,20,5.4z
		 M19.5,8.3c-4.6,0-9.1,0-13.7,0c-0.6,0-0.6-1,0-1c4.6,0,9.1,0,13.7,0C20.1,7.3,20.1,8.3,19.5,8.3z"/>
	<path class="st2" d="M25,12.9h-3.8c-1.1,0-2,0.9-2,2v8.7c0,1.1,0.9,2,2,2H25c1.1,0,2-0.9,2-2v-8.7C27,13.8,26.1,12.9,25,12.9z
		 M24.6,24.3c-0.9,0-1.9,0-2.8,0c-0.6,0-0.6-1,0-1c0.9,0,1.9,0,2.8,0C25.2,23.3,25.2,24.3,24.6,24.3z"/>
</g>
<g id="graphic-white" class="st0">
	<path class="st2" d="M22.8,6.6c-1.3,0-2.3,1-2.3,2.3V20l2,2.9c0.1,0,0.2,0.1,0.3,0.1c0.1,0,0.1,0,0.2,0l0.1,0c0.1,0,0.1,0,0.1-0.1
		l1.8-2.9V8.9C25.1,7.6,24.1,6.6,22.8,6.6z M23.4,20.6c-0.4,0-0.8,0-1.2,0c-0.6,0-0.6-1,0-1c0.4,0,0.8,0,1.2,0
		C24,19.6,24,20.6,23.4,20.6z"/>
	<path class="st2" d="M21.8,23.7L21.8,23.7l-2.3-3.3V8.9c0-1.7,1.3-3.1,3-3.2c-0.3-0.7-1-1.2-1.8-1.2H6.9c-1.1,0-2,0.9-2,2v17
		c0,1.1,0.9,2,2,2h13.8c0.9,0,1.7-0.6,1.9-1.4C22.3,24,22,23.9,21.8,23.7z M12.3,6.1c0.3,0,0.5,0.2,0.5,0.5c0,0.3-0.2,0.5-0.5,0.5
		c-0.3,0-0.5-0.2-0.5-0.5C11.8,6.3,12,6.1,12.3,6.1z M12,15.5c-3.5,0-1.4,0-4.9,0c-0.6,0-0.6-1,0-1c3.5,0,1.4,0,4.9,0
		C12.6,14.5,12.6,15.5,12,15.5z M17.4,12.7c-3.5,0-6.9,0-10.4,0c-0.6,0-0.6-1,0-1c3.5,0,6.9,0,10.4,0C18.1,11.7,18.1,12.7,17.4,12.7
		z M17.4,9.9c-3.5,0-6.9,0-10.4,0c-0.6,0-0.6-1,0-1c3.5,0,6.9,0,10.4,0C18.1,8.9,18.1,9.9,17.4,9.9z"/>
</g>
<g id="all-white">
	<path class="st3" d="M25.4,12.1H13.6c-0.9,0-1.6,0.7-1.6,1.6v11.7c0,0.9,0.7,1.6,1.6,1.6h11.7c0.9,0,1.6-0.7,1.6-1.6V13.7
		C27,12.8,26.2,12.1,25.4,12.1z M18,19.5c-1.2,0-2.5,0-3.7,0c-0.6,0-0.6-1,0-1c1.2,0,2.5,0,3.7,0C18.7,18.5,18.7,19.5,18,19.5z
		 M24.5,17c-3.4,0-6.8,0-10.2,0c-0.6,0-0.6-1,0-1c3.4,0,6.8,0,10.2,0C25.2,16,25.2,17,24.5,17z M24.5,14.6c-3.4,0-6.8,0-10.2,0
		c-0.6,0-0.6-1,0-1c3.4,0,6.8,0,10.2,0C25.2,13.6,25.2,14.6,24.5,14.6z"/>
	<path class="st3" d="M16.9,3H5.1C4,3,3,4,3,5.1v11.7C3,18.1,4,19,5.1,19H11v-5.3c0-1.5,1.2-2.7,2.7-2.7H19V5.1C19,4,18.1,3,16.9,3z
		 M9.3,11.5c-1.2,0-2.5,0-3.7,0c-0.6,0-0.6-1,0-1c1.2,0,2.5,0,3.7,0C10,10.5,10,11.5,9.3,11.5z M15.8,9C12.4,9,9,9,5.6,9
		C5,9,5,8,5.6,8C9,8,12.4,8,15.8,8C16.5,8,16.5,9,15.8,9z M15.8,6.5c-3.4,0-6.8,0-10.2,0c-0.6,0-0.6-1,0-1c3.4,0,6.8,0,10.2,0
		C16.5,5.5,16.5,6.5,15.8,6.5z"/>
</g>
<g id="參考線">
</g>
</svg>
