<?xml version="1.0" encoding="utf-8"?>
<!-- Generator: Adobe Illustrator 26.2.1, SVG Export Plug-In . SVG Version: 6.00 Build 0)  -->
<svg version="1.1" id="圖層_1" xmlns="http://www.w3.org/2000/svg" xmlns:xlink="http://www.w3.org/1999/xlink" x="0px" y="0px"
	 viewBox="0 0 40 40" style="enable-background:new 0 0 40 40;" xml:space="preserve">
<style type="text/css">
	.st0{fill:#191919;}
</style>
<g id="圖層_1_00000018947068853414463330000001856231443048432549_">
</g>
<g id="圖層_2_00000114054040133679237270000000515050729222791359_">
	<g>
		<path class="st0" d="M0,4v32c0,2.2,1.8,4,4,4h32c2.2,0,4-1.8,4-4V4c0-2.2-1.8-4-4-4H4C1.8,0,0,1.8,0,4z M18.1,27h-2.8v-2.8h2.8V27
			z M18.1,15.8h-6.7c-2,0-3.6,1.6-3.6,3.5v4.8h4.6V27H5v-7.6c0-3.5,2.9-6.4,6.4-6.4h6.7V15.8z M35,27h-2.8v-7.6c0-2-1.6-3.6-3.5-3.6
			h-4.8V27H21V13h7.6c3.5,0,6.4,2.9,6.4,6.4V27z"/>
	</g>
</g>
</svg>
