<svg width="600" height="600" viewBox="0 0 600 600" fill="none" xmlns="http://www.w3.org/2000/svg">
<g clip-path="url(#clip0_2_2)">
<path d="M136.05 434.67C136.8 434.92 137.58 435.24 138.06 435.88C138.59 436.59 138.64 437.54 138.67 438.42C139.67 469.11 139.9 499.83 139.35 530.53C134.96 527.85 130.18 524.56 129.28 519.5C128.36 514.36 131.81 509.56 133.08 504.49C135.07 496.55 131.64 488.37 128.28 480.92C127.13 478.36 125.92 475.72 123.87 473.8C120.74 470.88 116.22 470.12 111.98 469.49C114.81 466.54 117.69 463.52 119.36 459.79C120.92 456.3 121.24 452.1 119.34 448.69C117.65 445.65 113 443.75 114.25 439.71C116.5 432.46 130.66 432.87 136.05 434.68V434.67Z" fill="#969696"/>
<path d="M200.08 437.97C192.03 449.81 189.78 464.73 182.53 477.08C180.2 466 178.62 454.77 177.78 443.49C177.67 441.93 176.56 437.31 177.66 436.02C178.94 434.54 182.15 436.09 183.84 436.41C185.81 436.78 198.95 439.63 200.08 437.97V437.97Z" fill="#969696"/>
<path d="M299.05 441.98C294.82 447.85 291.88 454.65 290.49 461.75C284.44 460.25 277.83 462.55 273.29 466.82C268.75 471.09 266.1 477.08 264.95 483.21C261.32 479.88 256.43 477.96 251.51 477.91C256.8 472.75 257.19 464.52 257.23 457.13C257.25 453.67 255.73 445.6 257.34 442.66C258.95 439.72 266.02 441.31 269.31 441.39C274.27 441.51 279.22 441.62 284.18 441.72C285.99 441.76 298.17 443.22 299.05 441.98V441.98Z" fill="#969696"/>
<path d="M529.57 447.38C525.41 448.95 521.63 453.01 519.25 456.25C512.89 464.88 512.42 474.14 513.9 484.6C511.2 484.28 504.21 489.3 502.41 488.3C499.79 486.84 502.5 474.19 502.67 471.51C503.19 462.96 503.39 454.4 503.38 445.84C503.38 442.25 500.79 427.58 503.85 425.22C504.95 424.37 506.51 424.59 507.85 424.94C513.25 426.33 518.57 429.25 522.8 432.86C526.88 436.34 531.44 441.47 532.94 446.71C531.8 446.71 530.67 446.96 529.57 447.38V447.38Z" fill="#969696"/>
<path d="M460.05 416.94C460.47 417.19 460.9 417.48 461.13 417.91C461.39 418.39 461.36 418.97 461.33 419.52C460.65 429.56 459.73 439.59 458.56 449.59C453.57 439.14 449.83 428.09 447.44 416.76C446.07 410.25 457.23 415.24 460.06 416.94H460.05Z" fill="#969696"/>
<path d="M402.93 420.84C403.88 431.09 406.75 441.16 411.34 450.37C406.55 452.26 402.28 455.43 399.08 459.47C401.31 456.65 382.53 449.95 380.74 449.72C376.58 449.2 372.46 449.83 368.45 450.93C365.89 451.63 362.63 454.39 360.11 454.11C359.16 449.19 358.11 444.72 354.91 440.66C352.97 438.2 350.79 435.95 348.71 433.61L356.93 434.01" fill="#969696"/>
<path d="M282.19 531.97C288.14 531 294.16 530.51 300.22 530.27C308.18 529.97 318.31 531.29 324.55 536.73C329.75 541.26 329.18 548.82 325.28 553.98C322.51 557.64 318.34 559.89 314.1 561.42C301.62 565.95 289.31 568.22 275.94 567.1C268.02 566.44 257.62 565.06 252.54 558.13C240.72 542.02 272.03 533.62 282.2 531.96L282.19 531.97Z" fill="#F0F0F0"/>
<path d="M59.78 409.07C69.02 399.96 86.09 398.71 95.94 407.47C100.1 411.17 102.92 416.15 104.3 421.52C105.01 424.27 107.47 435.91 102.9 436.38C113.38 435.31 121.39 446.52 120.03 456.38C119.26 461.95 116.06 468.19 110.1 469.47C110.97 469.28 116.21 471.61 117.32 472.13C119.53 473.16 121.7 474.59 123.5 476.23C127.98 480.32 130.89 485.71 131.85 491.71C132.96 498.66 131.97 506.07 129.27 512.55C128.68 513.97 128.09 515.42 128.04 516.95C127.89 522.52 134.79 527.41 139.33 529.41C128.49 528.85 117.69 527.53 107.05 525.44C96.24 523.32 85.07 527.16 74.36 524.33C68.61 522.81 63.54 519.54 59.49 515.21C53.58 508.88 48.17 496.57 52.15 488.27C48.13 487.82 44.59 487.11 40.97 485.21C38.72 484.02 36.71 482.37 35.05 480.45C32.05 476.97 30.15 472.65 29.06 468.18C27.95 463.61 27.67 458.74 28.96 454.22C30.87 447.55 36.76 443.11 42.58 439.89C44.56 438.8 47.06 438.84 48.93 437.55C51 436.12 49.79 434.2 49.97 431.99C50.09 430.51 50.76 429.13 50.98 427.65C52 420.75 54.75 414.03 59.79 409.07H59.78Z" fill="#F0F0F0"/>
<path d="M511.1 484.87C508.21 486.29 502.07 488.96 501.25 492.33C500.89 493.8 501.03 495.33 501.13 496.84C501.32 499.91 499.04 518.81 501.17 519.64C501.92 519.93 502.76 519.7 503.53 519.45C508.19 517.92 512.94 515.87 517.39 513.8C523.4 511.01 529.12 507.44 533.6 502.48C539.72 495.71 542.44 486.56 542.62 477.56C542.78 469.71 541.91 458.41 537.42 451.76C530.43 441.38 517.73 456.73 515.18 462.91C513.86 466.11 512.95 469.45 512.6 472.9C512.23 476.51 513.21 480.73 513.78 484.3C513.69 483.76 512.54 484.14 511.1 484.85V484.87Z" fill="#F0F0F0"/>
<path d="M330.23 426.97C324.93 426.55 319.1 426.46 314.09 428.41C307.47 430.99 302.25 436.14 298.46 442.04C294.97 447.46 292.28 453.53 290.81 459.79C290.81 459.76 282.39 462.06 281.47 462.48C277.78 464.18 274.71 467.12 271.97 470.05C270.85 471.24 261.76 480.55 263.47 482.16C259.58 478.51 253.74 477.9 248.41 478.23C242.54 478.59 236.55 479.9 231.73 483.28C226.91 486.66 223.45 492.37 223.95 498.23C215.03 495.27 204.65 496.1 196.96 501.5C192.14 504.89 179.33 524.64 189.87 528.23C191.83 528.9 193.97 528.44 195.98 527.99C204.38 526.08 212.78 524.17 221.18 522.26C231.47 520.33 241.64 517.88 251.86 515.62C260.67 513.67 269.63 512.6 278.53 511.25C288.49 509.74 298.98 507.74 308.94 507.89C319.62 508.05 330.29 508.8 340.98 508.58C366.76 508.04 392.85 514.32 418.73 515.51C424.66 515.78 448.11 523.24 452.8 518.74C454.4 517.2 454.23 507.35 454.7 505.13C455.96 499.06 457.07 493.01 457.07 486.79C457.07 473.37 450.63 457.11 437.54 451.61C426.33 446.9 416.92 448.71 406.72 454.67C406.07 455.05 398.17 459.7 398.94 460.46C393.87 455.48 386.39 450 378.88 449.87C372.87 449.72 365.43 451.83 359.61 453.17C356.58 439.75 344.03 428.08 330.22 427L330.23 426.97Z" fill="#F0F0F0"/>
<path d="M402.49 414.36C402.72 421.11 405.11 426.79 406.56 433.23C408.01 439.67 409.85 445.44 412.09 451.53C414.28 448.45 425.39 449.23 428.9 449.77C434.47 450.62 440.09 453.04 444.28 456.85C449.03 461.19 452.7 466.46 455.29 472.35C454.82 471.27 457.32 463.98 457.61 462.33C457.99 460.21 458.37 458.07 458.38 455.92C458.41 446.86 453.35 437.62 450.83 429.07C448.62 421.58 445.8 414.28 443.01 406.99C440.13 399.46 433.16 389.35 424.01 390.41C418.29 391.07 411.96 392.49 407.77 396.76C403.5 401.11 402.27 407.63 402.5 414.36H402.49Z" fill="#F0F0F0"/>
<path d="M456.56 485.75C456.29 488.26 455.99 490.77 455.68 493.27C455.07 498.19 453.98 503.06 453.59 508.01C453.38 510.57 452.71 513.55 453.2 516.1C454.25 521.53 466.41 520.23 470.32 520.38C479.03 520.73 487.78 520.38 496.36 518.69C501.72 517.64 500.36 513.7 500.45 509.4C500.51 506.65 500.55 503.89 500.58 501.13C500.71 487.75 501.32 474.17 501.21 460.86C501.21 460.24 501.07 459.46 500.47 459.32C500.22 459.27 499.96 459.36 499.72 459.46C497.23 460.54 495.64 463.28 493.25 464.69C490.86 466.1 487.99 467.04 485.15 467.42C478.37 468.32 472.18 468.09 466.48 463.93C463.3 461.61 459.71 455.71 458.22 462.97C456.71 470.29 457.37 478.24 456.57 485.73L456.56 485.75Z" fill="#F0F0F0"/>
<path d="M471.01 466.54C480.27 470.08 492.35 467.87 498.79 460.01C502.91 454.97 502.25 447.79 502.52 441.56C502.85 433.82 502.74 426.07 502.79 418.33C502.87 405.74 502.9 393.14 502.87 380.55C502.87 378.85 469.75 379.71 466.28 380.03C465.91 380.06 465.51 380.12 465.25 380.38C464.98 380.66 464.95 381.08 464.94 381.46C464.64 389.28 463.61 397.17 462.82 405C462.1 415.23 460.88 425.42 459.67 435.61C458.89 442.12 456.81 450.83 459.71 456.9C461.85 461.38 466.04 464.65 471.02 466.55L471.01 466.54Z" fill="#F0F0F0"/>
<path d="M534.69 187.26C531.84 197.66 525.72 206.81 520.04 215.98C513.39 226.71 506.32 235.88 506.46 248.99C506.64 265.21 520.72 277.58 536.8 276.3C554.88 274.86 564.13 255.91 569.51 240.85C574.42 227.1 572.86 211.07 568.85 197.31C564.26 181.56 555.71 169.54 542.21 161.17C532.86 155.37 536.14 181.98 534.69 187.26V187.26Z" fill="#F0F0F0"/>
<path d="M159.69 476.24C167.01 476.64 174.57 474.7 180.32 470.15C179.63 470.7 181.89 479.83 182.09 481.06C182.69 484.86 183.27 488.66 183.86 492.46C185.03 500.05 186.21 507.65 187.48 515.22C187.79 517.03 188.1 518.84 188.41 520.66C188.5 521.18 189.72 527.62 189.08 527.76C186.71 528.26 184.37 528.77 181.97 529.09C174.4 530.06 166.8 531.04 159.16 531.2C156.25 531.26 153.34 531.21 150.43 531C146.93 530.75 142.69 530.97 139.35 530.04C139.01 525.68 139.39 521.16 139.26 516.76C139.14 512.65 138.7 508.33 138.7 504.34C138.3 497 139.22 489.51 138.35 482.16C138.21 481.01 138.5 471.21 138.31 471.14C139.58 471.6 141.07 470.94 142.68 471.51C144.02 471.98 145.23 472.73 146.54 473.25C150.73 474.91 155.17 476 159.68 476.25L159.69 476.24Z" fill="#F0F0F0"/>
<path d="M171.87 475.92C167.78 477.76 162.98 478.34 158.72 477.94C153.9 477.49 149.37 475.04 145.02 473.35C142.17 472.24 139.54 470.54 139.27 467.21C139.06 464.49 138.59 461.7 138.6 458.99C138.61 453.1 138.63 447.21 138.64 441.32C138.65 422.63 137.48 404.32 137.61 385.62C137.65 380.28 137.38 380.35 141.84 380.1C145.17 379.91 148.45 380.1 151.78 380C153.53 379.95 172.74 379.33 172.74 379.36C175.13 404.85 177.07 430.38 179.61 455.86C180.06 460.41 181.94 464.39 179.78 468.69C178.09 472.06 175.22 474.42 171.87 475.93V475.92Z" fill="#F0F0F0"/>
<path d="M72.21 187.29C75.49 196.75 81.11 205.25 85.9 213.99C95.34 231.23 94.54 253.05 75.11 262.94C58.24 271.53 43.81 259.65 35.8 245.15C25.81 227.07 27.05 206.41 30.9 186.63C33.63 172.65 41.92 164.33 52.64 155.94C55.86 153.42 67.84 145.31 67.85 153.06C67.87 164.36 68.44 176.42 72.2 187.28L72.21 187.29Z" fill="#F0F0F0"/>
<path d="M262.92 380H293.71L350.48 415.38C355.81 418.7 362.71 414.87 362.71 408.59V380H519.71C528.51 380 535.71 372.8 535.71 364V275.64C526.13 277.85 512.56 269.02 508.67 260.35C504.78 251.68 506.2 241.68 509.31 233.28C514.17 220.13 525.26 210.13 530.83 197.26C536.41 184.37 536.22 169.44 535.71 155.41V49C535.71 40.2 528.51 33 519.71 33H83.71C74.91 33 67.71 40.2 67.71 49V168C67.71 197.55 99.28 214.07 89.83 247.01C86.79 257.59 80.41 258.67 73.2 264.9C71.85 266.06 70.82 267.25 70.02 268.46C66.43 273.93 67.76 280.06 67.77 288.2C67.81 313.47 67.72 338.73 67.72 364C67.72 372.8 74.92 380 83.72 380H241.17" fill="#F0F0F0"/>
<path d="M267.04 244.61C250.51 242.84 233.69 240.12 215.84 238.22C180.73 234.49 132.19 262.37 129.46 300.54C129.07 305.91 129.65 311.44 131.85 316.35C134.14 321.47 138.09 325.68 142.46 329.2C167.88 349.68 204.92 346.91 236.06 337.1C254.07 331.43 271.86 325.01 290.1 320.09C318.45 312.45 357.94 308.59 386.1 318C399.95 322.63 412.34 330.71 426.58 334.43C444.71 339.18 470.74 331.4 480.56 314.61C491.7 295.55 486.94 268.61 470.76 253.89C442.98 228.62 382.65 226.24 349.05 237.9C320.36 247.85 294.09 247.5 267.05 244.6L267.04 244.61Z" fill="#969696"/>
<path d="M412.72 242.91C414.76 245.04 415.9 248.01 415.64 252.12C415.24 258.61 412.05 264.9 407.44 269.42C400.23 276.47 390.28 279.89 380.5 282.39C339.29 292.9 295.81 290.61 253.85 283.7C245.44 282.32 236.78 280.65 229.7 275.89C223.18 271.51 215.62 260.9 219.89 252.72C223.68 245.47 232.92 249.21 239.05 250.01C246.86 251.03 254.7 251.88 262.56 252.48C275.83 253.5 288.54 255.67 301.88 254.95C317.28 254.12 332.58 251.51 347.38 247.17C358.95 243.78 370.6 240.33 382.61 238.9C391.14 237.89 406.32 236.23 412.71 242.9L412.72 242.91Z" fill="#F0F0F0"/>
<path d="M225.43 413.57C223.27 417.39 220.98 421.23 217.67 424.11C215.06 426.39 211.93 427.97 209.1 429.96C198.84 437.2 193.29 449.24 188.19 460.71C186.75 463.95 184.15 467.52 183.66 471.08C183.17 474.64 184.99 479.62 185.58 483.31C186.36 488.21 187.03 493.12 187.59 498.05C188.06 502.11 187.56 507.62 188.93 511.4C190.27 510.71 191.92 509.22 192.93 508.03C194.46 506.23 195.85 504.32 197.39 502.53C200.23 499.22 205.35 497.59 209.42 496.12C212.96 494.85 215.02 494.78 218.5 495.9C219.2 496.13 225.09 497.79 224.69 498.94C225.64 496.23 226.25 493.43 227.55 490.88C228.92 488.21 230.67 485.69 232.91 483.68C237.57 479.49 244.68 478.47 250.76 478.62C251.06 478.62 251.39 478.63 251.63 478.45C251.87 478.27 251.96 477.97 252.03 477.68C254.45 468.89 260.12 461.44 260.02 452.02C259.9 440.68 250.9 430.4 252.5 419.17C252.97 415.88 254.34 412.79 255.58 409.71C260.13 398.44 263.21 386.58 264.72 374.52C264.33 377.66 251.7 371.11 250.71 370.37C247.93 368.29 248.19 367.13 246 369.89C244.27 372.07 243.46 376.37 242.37 378.96C237.41 390.82 231.74 402.39 225.41 413.58L225.43 413.57Z" fill="#F0F0F0"/>
<path d="M505.12 427.72C512.93 429.83 519.3 434.77 524.61 440.74C529.92 446.71 534.7 453.41 537.53 460.67C542.62 473.73 540.79 488.69 531.88 499.68C521.22 512.83 503.62 518.67 487.25 519.86C469.84 521.12 452.26 518.52 434.92 517.28C395.13 514.42 355.89 505.77 315.83 507.39C296.39 508.18 277.09 510.89 257.96 514.37C238.38 517.93 218.97 522.46 199.34 525.77C179.71 529.08 159.13 531.3 138.92 529.66C129.13 528.86 119.17 527.89 109.63 525.49C105.06 524.34 100.43 523.15 95.69 523.08C91.51 523.02 87.39 523.63 83.2 523.33C79.01 523.03 75.15 522.1 71.62 520.01C68.29 518.04 65.27 523.22 68.59 525.19C76.41 529.83 85.26 529.52 94.01 529.1C98.8 528.87 103.43 530.11 108.03 531.27C112.63 532.43 117.59 533.2 122.47 533.84C133.09 535.23 143.78 536.38 154.51 536.28C165.24 536.18 175.11 535.22 185.3 533.9C206.06 531.2 226.47 526.56 246.99 522.54C266.8 518.66 286.74 515.27 306.9 513.88C327.62 512.45 348.26 513.5 368.88 515.77C389.28 518.02 409.57 521.18 430.02 522.9C439.46 523.69 448.91 524.39 458.35 525.17C467.44 525.92 476.58 526.5 485.7 525.97C502.95 524.97 521.13 519.55 533.49 506.87C544.02 496.07 548.47 480.77 545.37 466.02C543.71 458.13 539.79 451.13 535.19 444.6C530.4 437.78 524.79 431.4 517.74 426.85C514.34 424.66 510.6 423.01 506.7 421.96C502.8 420.91 501.38 426.74 505.1 427.75L505.12 427.72Z" fill="#969696"/>
<path d="M352.48 438.46C369.65 437.74 385.6 431.05 401.2 424.42C402.69 423.79 403.02 421.59 402.28 420.32C401.38 418.78 399.67 418.61 398.18 419.24C383.61 425.44 368.53 431.79 352.49 432.46C350.87 432.53 349.49 433.79 349.49 435.46C349.49 437.03 350.86 438.53 352.49 438.46H352.48Z" fill="#969696"/>
<path d="M447.98 416.81C449.07 416.81 450.15 416.84 451.23 416.95C451.46 416.97 451.69 417 451.92 417.03C452.62 417.11 451.4 416.94 452.04 417.05C452.58 417.14 453.11 417.23 453.64 417.34C454.63 417.55 455.6 417.8 456.56 418.11C457.08 418.27 457.59 418.45 458.1 418.65C458.32 418.73 458.53 418.82 458.75 418.91C459.06 419.04 459.04 419.03 458.68 418.88C458.82 418.94 458.96 419 459.11 419.07C459.87 419.41 460.59 419.6 461.42 419.37C462.12 419.18 462.87 418.64 463.21 417.99C463.9 416.68 463.66 414.57 462.13 413.89C457.66 411.88 452.89 410.78 447.97 410.83C446.4 410.84 444.9 412.2 444.97 413.83C445.04 415.46 446.29 416.84 447.97 416.83L447.98 416.81Z" fill="#969696"/>
<path d="M260.01 444.26C272.59 444.79 285.19 444.68 297.76 443.95C299.38 443.86 300.76 442.64 300.76 440.95C300.76 439.4 299.39 437.86 297.76 437.95C285.19 438.68 272.59 438.78 260.01 438.26C258.39 438.19 257.01 439.69 257.01 441.26C257.01 442.94 258.38 444.19 260.01 444.26Z" fill="#969696"/>
<path d="M199.48 433.81C192.46 433.79 185.47 433.11 178.48 432.51C176.86 432.37 175.48 433.99 175.48 435.51C175.48 437.25 176.86 438.37 178.48 438.51C185.47 439.1 192.46 439.79 199.48 439.81C201.1 439.81 202.48 438.43 202.48 436.81C202.48 435.19 201.11 433.81 199.48 433.81Z" fill="#969696"/>
<path d="M115.59 441.31C122.17 437.95 129.48 436.34 136.85 436.49C140.71 436.57 140.71 430.57 136.85 430.49C128.41 430.31 120.07 432.29 112.56 436.13C111.12 436.87 110.7 438.89 111.48 440.23C112.34 441.7 114.14 442.05 115.58 441.31H115.59Z" fill="#969696"/>
<path d="M282.99 534.86C287.15 534.19 291.35 533.77 295.56 533.51C299.14 533.28 302.73 533.12 306.31 533.38C312.12 533.81 319.27 535.32 323.33 539.74C324.12 540.61 324.68 541.67 325 542.82C325.32 543.97 325.45 545.25 325.22 546.79C325.27 546.46 325.12 547.22 325.1 547.32C325.02 547.71 324.91 548.09 324.8 548.47C324.57 549.23 324.44 549.53 324.14 550.13C323.42 551.55 322.55 552.71 321.41 553.81C319.02 556.12 315.94 557.58 312.85 558.69C309.03 560.06 305.14 561.25 301.19 562.18C293.37 564.03 285.36 564.75 277.34 564.21C271.51 563.82 265.17 563.2 259.99 560.49C257.54 559.21 255.67 557.64 254.28 555.38C254 554.92 253.77 554.43 253.51 553.96C253.24 553.46 253.62 554.35 253.45 553.82C253.36 553.54 253.25 553.27 253.17 552.98C253.11 552.78 253.06 552.57 253.01 552.36C252.98 552.24 252.86 551.45 252.92 551.95C252.98 552.45 252.92 551.77 252.91 551.65C252.91 551.42 252.89 551.2 252.91 550.97C252.91 550.76 252.98 550.5 252.96 550.3C252.94 550.16 252.82 550.91 252.96 550.35C253.08 549.92 253.19 549.5 253.32 549.07C253.49 548.5 253.23 549.23 253.31 549.07C253.41 548.87 253.5 548.66 253.61 548.46C253.83 548.05 254.08 547.67 254.34 547.29C254.53 547.01 254.66 546.88 254.36 547.25C254.49 547.09 254.62 546.93 254.76 546.77C255.09 546.4 255.43 546.04 255.79 545.69C256.15 545.34 256.49 545.04 256.86 544.73C256.94 544.66 257.47 544.23 257.18 544.47C256.91 544.68 257.58 544.17 257.71 544.08C259.48 542.81 261.39 541.75 263.34 540.81C263.84 540.57 264.35 540.34 264.86 540.11C265.1 540.01 265.33 539.9 265.57 539.8C265.89 539.66 265.49 539.83 265.45 539.85C265.65 539.77 265.85 539.69 266.05 539.6C267.09 539.18 268.14 538.79 269.19 538.42C273.02 537.08 276.95 536.01 280.92 535.22C281.62 535.08 282.31 534.95 283.01 534.84C284.61 534.58 285.5 532.59 285.11 531.15C284.64 529.45 283.02 528.79 281.42 529.05C277.43 529.71 273.49 530.71 269.64 531.95C264.83 533.49 259.99 535.4 255.75 538.16C252.02 540.6 248.24 544.01 247.24 548.55C246.04 554 248.94 559.63 253.12 563.05C258.77 567.67 266.1 569.08 273.18 569.82C281.69 570.72 290.2 570.4 298.62 568.83C302.95 568.02 307.22 566.88 311.4 565.51C315.34 564.22 319.36 562.81 322.77 560.4C328.88 556.08 333.15 548.28 330.67 540.72C328.19 533.16 320.18 529.73 313.11 528.27C305.1 526.62 296.82 527.18 288.76 528.06C286.31 528.33 283.86 528.66 281.42 529.05C279.82 529.31 278.93 531.3 279.32 532.74C279.79 534.44 281.4 535.09 283.01 534.84L282.99 534.86Z" fill="#969696"/>
<path d="M291.62 457.61C292.07 453.55 293.06 449.56 294.61 445.67C296.2 441.75 298.63 438.2 301.53 435.07C304.43 431.94 307.89 429.29 311.72 427.29C315.54 425.29 319.72 423.85 324.07 423.31C325.16 423.19 326.25 423.06 327.35 423.05C327.9 423.04 328.45 423 329 423.01L330.65 423.09C331.74 423.11 332.85 423.35 333.95 423.49C335.05 423.67 336.12 423.98 337.19 424.24C341.43 425.54 345.31 427.76 348.57 430.58C351.84 433.39 354.5 436.8 356.44 440.53C358.35 444.26 359.67 448.27 360.01 452.34C358.37 448.61 356.4 445.16 353.96 442.13C351.56 439.08 348.77 436.41 345.67 434.31C342.57 432.2 339.21 430.61 335.69 429.74C334.8 429.6 333.92 429.35 333.03 429.24C332.13 429.17 331.26 428.99 330.33 429.01L328.96 428.96C328.5 428.96 328.05 429 327.59 429.01C326.68 429.01 325.77 429.15 324.86 429.25C323.95 429.33 323.05 429.56 322.14 429.7C321.25 429.93 320.35 430.13 319.46 430.4C318.58 430.69 317.68 430.92 316.83 431.29L315.53 431.79L314.26 432.37C312.55 433.12 310.94 434.09 309.33 435.06C307.78 436.12 306.22 437.2 304.81 438.46C301.94 440.93 299.32 443.78 297.23 447.03C295.08 450.29 293.36 453.93 291.64 457.61H291.62Z" fill="#969696"/>
<path d="M350.62 462.07C353.45 456.71 358.27 452.32 363.92 449.53C369.57 446.74 376.23 445.54 382.69 446.63C389.2 447.71 395.13 451.15 399.37 455.94C401.49 458.34 403.19 461.09 404.3 464.03C405.4 466.97 405.93 470.11 405.63 473.13C403.67 467.41 400.26 462.8 396.07 459.3C391.88 455.8 386.89 453.42 381.71 452.55C376.48 451.67 370.98 452.21 365.7 453.89C360.4 455.56 355.36 458.34 350.63 462.08L350.62 462.07Z" fill="#969696"/>
<path d="M399.35 460.23C400.36 457.35 402.34 454.76 404.77 452.71C407.2 450.65 410.08 449.13 413.1 448.08C419.15 446.01 425.73 445.71 431.98 446.94C438.21 448.19 444.35 450.99 448.9 455.74C451.15 458.1 452.94 460.97 453.85 464.07C454.76 467.17 454.82 470.42 454.05 473.37C453.51 470.37 452.58 467.61 451.14 465.24C449.71 462.86 447.84 460.87 445.7 459.22C441.42 455.92 436.19 453.92 430.81 452.83C425.41 451.76 419.77 451.63 414.32 452.62C408.89 453.64 403.58 455.82 399.35 460.23V460.23Z" fill="#969696"/>
<path d="M373.94 490.43C375.01 483.92 379.41 477.92 385.28 474.21C391.21 470.47 398.47 469.06 405.4 469.84C412.32 470.61 419.12 473.57 424.05 478.61C426.5 481.13 428.4 484.14 429.55 487.38C430.66 490.62 431.11 494.07 430.49 497.31C429.1 490.92 425.51 485.7 420.89 482.12C416.24 478.54 410.55 476.48 404.73 475.81C398.91 475.17 392.92 475.92 387.53 478.35C382.15 480.8 377.34 484.88 373.93 490.45L373.94 490.43Z" fill="#969696"/>
<path d="M307.92 464.35C302.69 462.2 297.41 461.44 292.33 461.86C287.26 462.28 282.44 463.9 278.47 466.71C274.47 469.53 271.21 473.47 268.78 478.01C266.34 482.57 264.74 487.69 263.82 493.26C262.23 487.81 262.55 481.75 264.44 476.15C266.34 470.56 269.96 465.33 275.02 461.79C280.08 458.2 286.39 456.66 292.35 457.14C298.3 457.61 304.1 460.1 307.92 464.33V464.35Z" fill="#969696"/>
<path d="M225.13 510.79C222.86 505.77 222.42 499.84 223.73 494.2C225.08 488.58 228.27 483.14 233.3 479.56C235.78 477.81 238.53 476.55 241.38 475.77C244.23 474.99 247.19 474.69 250.11 474.91C253.02 475.12 255.89 475.82 258.49 477.06C261.07 478.3 263.4 480.08 265.01 482.33C260.11 479.81 255.03 479.17 250.15 479.63C245.27 480.07 240.58 481.78 236.79 484.44C234.91 485.75 233.26 487.42 231.82 489.33C230.38 491.23 229.17 493.35 228.21 495.63C226.29 500.21 225.32 505.3 225.13 510.78V510.79Z" fill="#969696"/>
<path d="M189.37 516.9C188.94 514.88 189 512.75 189.37 510.67C189.76 508.59 190.51 506.55 191.54 504.65C192.58 502.75 193.94 501 195.53 499.47C196.32 498.7 197.22 498.04 198.1 497.37C199.02 496.76 199.96 496.18 200.94 495.69C202.91 494.72 204.98 494 207.11 493.56C209.24 493.16 211.42 493.01 213.58 493.19C217.86 493.51 222.15 495.24 224.92 498.32C220.89 497.45 217.24 497.36 213.67 497.91C211.9 498.18 210.17 498.57 208.48 499.09C206.8 499.63 205.17 500.28 203.63 501.05C200.51 502.57 197.8 504.66 195.4 507.33C193.01 510 191.04 513.15 189.37 516.91V516.9Z" fill="#969696"/>
<path d="M532.48 448.08C528.63 449.09 525.93 451.19 523.64 453.66C521.37 456.15 519.54 459.03 518.08 462.08C516.61 465.17 515.43 468.4 514.74 471.77C514.05 475.15 513.85 478.63 514.51 482.53C513.04 481.18 511.96 479.4 511.21 477.49C510.47 475.57 510.1 473.5 510.03 471.43C509.89 467.28 510.9 463.17 512.67 459.49C514.46 455.77 517.13 452.41 520.63 450.05C522.38 448.89 524.35 447.99 526.42 447.59C528.48 447.2 530.64 447.3 532.48 448.08Z" fill="#969696"/>
<path d="M502.5 492.2C503.17 488.59 505.75 485.4 508.96 483.35C512.19 481.28 516.09 480.21 520 480.35C523.88 480.48 527.62 481.75 530.75 483.74C533.87 485.75 536.47 488.47 538.03 491.75C534.73 490.26 531.73 488.94 528.71 487.99C525.7 487.03 522.73 486.45 519.79 486.34C516.89 486.24 513.93 486.64 511.04 487.57C508.13 488.5 505.32 489.93 502.51 492.2H502.5Z" fill="#969696"/>
<path d="M50.73 437.52C48.99 433.56 48.54 429.01 49.04 424.57C49.58 420.12 51.15 415.72 53.81 411.88C56.48 408.11 59.91 404.95 63.95 402.58C65.97 401.41 68.15 400.51 70.39 399.8C72.65 399.14 74.98 398.77 77.33 398.6C79.68 398.51 82.03 398.65 84.33 399.03C84.9 399.13 85.47 399.27 86.04 399.4C86.61 399.52 87.17 399.66 87.73 399.84L89.4 400.35L91.1 401.05L91.94 401.41L92.73 401.86L94.3 402.77C94.79 403.12 95.27 403.47 95.75 403.83C96.23 404.18 96.7 404.55 97.12 404.97L98.41 406.18C98.82 406.6 99.19 407.05 99.58 407.49C100.37 408.35 101 409.33 101.67 410.27C104.22 414.12 105.75 418.5 106.36 422.93C106.93 427.36 106.44 431.96 104.61 435.87C105.72 427.34 102.74 419.14 97.85 413.04C95.34 410.07 92.34 407.52 88.9 406.29C88.47 406.14 88.05 405.99 87.62 405.82L86.22 405.45C85.75 405.31 85.28 405.21 84.8 405.13C84.32 405.05 83.85 404.94 83.38 404.87C81.48 404.59 79.56 404.5 77.65 404.58C75.75 404.7 73.86 404.99 72.02 405.48C70.18 405.99 68.4 406.69 66.68 407.55C64.98 408.45 63.33 409.48 61.8 410.7C60.3 411.92 58.79 413.29 57.53 414.74C54.99 417.66 53.09 421.26 51.91 425.15C50.7 429.04 50.28 433.23 50.73 437.51V437.52Z" fill="#969696"/>
<path d="M92.63 437.66C96.76 435.26 101.65 433.81 106.9 434.39C109.5 434.68 112.14 435.59 114.42 437.09C116.71 438.57 118.62 440.58 120.08 442.76C123.17 447.33 123.94 453.25 122.31 458.3C121.51 460.83 120.13 463.16 118.28 464.95C116.43 466.74 114.15 468.01 111.78 468.46C115.39 465.26 117.28 461.27 117.72 457.25C118.17 453.23 117.21 449.26 115.1 446.08C112.86 442.71 109.89 440.21 105.95 438.99C102.02 437.71 97.43 437.63 92.64 437.66H92.63Z" fill="#969696"/>
<path d="M61.71 439.43C58.22 438.45 54.73 438.08 51.45 438.7C48.17 439.27 45.15 440.63 42.36 442.42C36.9 445.88 33.08 451.49 31.59 457.64C31.24 459.17 30.95 460.73 30.92 462.3C30.85 463.86 30.92 465.45 31.2 466.96C31.69 470.02 33 473.09 34.63 475.94C36.27 478.8 38.44 481.37 41.02 483.48C43.6 485.62 46.79 486.98 50.41 487.36C46.91 488.34 42.87 487.71 39.46 485.98C36.04 484.24 33.06 481.66 30.73 478.6C29.56 477.07 28.51 475.44 27.65 473.69C27.2 472.83 26.84 471.91 26.47 470.99C26.17 470.04 25.82 469.12 25.62 468.11C24.68 464.17 24.84 460.08 25.75 456.22C26.23 454.29 26.93 452.43 27.77 450.63C28.68 448.87 29.69 447.16 30.93 445.62C33.38 442.54 36.55 439.93 40.08 438.3C43.53 436.66 47.4 435.61 51.26 435.77C55.12 435.93 58.79 437.25 61.69 439.42L61.71 439.43Z" fill="#969696"/>
<path d="M99.22 470.74C102.79 468.32 107.4 467.45 111.86 467.84C116.34 468.26 120.78 470 124.45 472.84C128.12 475.66 130.99 479.44 132.98 483.56C134.98 487.71 136.11 492.18 136.44 496.78C136.57 499.1 136.46 501.51 135.9 503.92C135.76 504.52 135.58 505.12 135.38 505.71C135.16 506.32 134.95 506.84 134.74 507.35L133.48 510.27C132.66 512.15 131.93 513.99 131.49 515.75C131.04 517.52 130.96 519.16 131.45 520.41C132 521.83 133.26 523.28 134.69 524.54C136.14 525.81 137.82 526.94 139.59 527.93C141.35 528.95 143.24 529.79 145.17 530.54C147.11 531.28 149.11 531.89 151.22 532.23C149.1 532.56 146.91 532.44 144.76 532.15C142.6 531.85 140.48 531.31 138.39 530.61C136.31 529.88 134.27 528.95 132.33 527.68C131.36 527.05 130.43 526.32 129.55 525.48C129.11 525.06 128.71 524.57 128.29 524.1C127.91 523.57 127.54 523.05 127.21 522.44C125.86 519.84 125.92 517.02 126.32 514.69C126.71 512.3 127.48 510.17 128.22 508.13L129.35 505.18C129.53 504.71 129.7 504.24 129.82 503.86C129.94 503.44 130.05 503.03 130.14 502.59C130.52 500.87 130.6 499.02 130.47 497.13C129.93 489.48 126.99 481.72 121.42 476.4C118.68 473.75 115.2 471.78 111.37 470.71C107.54 469.61 103.35 469.53 99.24 470.72L99.22 470.74Z" fill="#969696"/>
<path d="M110.15 518.65C103.51 524.09 95.02 527.6 86.05 528.23C83.81 528.36 81.54 528.34 79.29 528.11C77.04 527.87 74.78 527.41 72.58 526.77C70.39 526.09 68.26 525.22 66.22 524.18C64.2 523.09 62.26 521.85 60.43 520.43C58.64 518.97 56.96 517.37 55.46 515.61C54 513.81 52.67 511.89 51.58 509.82C50.54 507.73 49.68 505.56 49.12 503.27C48.6 500.99 48.35 498.67 48.36 496.36C48.42 494.06 48.72 491.77 49.28 489.57C49.88 487.37 50.71 485.25 51.78 483.28C52.92 481.34 54.22 479.51 55.78 477.93C57.37 476.38 59.14 475.07 61.05 474.1C54.82 480.06 52.39 488.47 53.07 496.21C53.69 504 58.07 510.92 64.15 515.74C67.19 518.16 70.66 520.05 74.34 521.39C76.19 522.04 78.08 522.52 80.03 522.91C81.98 523.25 83.97 523.46 85.97 523.55C94.02 523.85 102.25 521.96 110.15 518.67V518.65Z" fill="#969696"/>
<path d="M296.89 484.82C295.91 482.39 295.36 479.78 295.29 477.06C295.24 474.35 295.71 471.5 296.91 468.87C298.11 466.24 299.99 463.88 302.21 462.05C302.76 461.58 303.35 461.19 303.93 460.76C304.52 460.37 305.13 460.01 305.74 459.64C306.98 458.99 308.24 458.37 309.56 457.88C314.83 455.89 320.77 455.67 326.05 457.22C331.34 458.75 336 461.82 339.3 465.86C334.49 463.82 329.81 462.32 325.13 461.84C320.46 461.34 315.89 461.93 311.66 463.5C307.35 465.09 303.54 467.51 301.03 471.13C298.49 474.77 297.42 479.64 296.89 484.82Z" fill="#969696"/>
<path d="M262.92 383H292.46C292.76 383 293.4 383.14 293.67 383C292.47 383.61 291.72 382.11 292.55 382.81C293.43 383.55 294.61 384.1 295.59 384.71L308.1 392.5L340.02 412.39C342.88 414.17 345.73 415.99 348.61 417.74C354.76 421.48 363.11 418.92 365.26 411.75C365.87 409.72 365.72 407.52 365.72 405.43V380L362.72 383H474.8C489.63 383 504.45 383.08 519.28 383C524.86 382.97 530.28 380.8 533.97 376.52C537.36 372.59 538.71 367.85 538.71 362.75V275.64C538.71 273.59 536.8 272.36 534.91 272.75C527.03 274.38 517.86 268.35 513.32 262.32C507.32 254.34 508.95 242.82 512.19 234.08C515.64 224.78 522.38 217.12 527.77 208.93C533.61 200.06 536.97 190.57 538.22 180.03C539.47 169.49 538.7 159.51 538.7 149.25V56.12C538.7 53.92 538.71 51.72 538.7 49.52C538.67 43.67 536.34 38.09 531.74 34.35C527.54 30.93 522.62 30 517.43 30C508.68 30 499.94 30 491.19 30C474.68 30 458.18 30 441.67 30C419.97 30 398.26 30 376.56 30C352.23 30 327.89 30 303.56 30C279.23 30 254.76 30 230.37 30C208.47 30 186.58 30 164.68 30C147.85 30 131.02 30 114.19 30H86.6C82.71 30 79.05 30.18 75.4 31.93C68.81 35.08 64.8 41.89 64.69 49.11C64.67 50.67 64.69 52.23 64.69 53.79C64.69 74.27 64.69 94.76 64.69 115.24C64.69 132.59 64.67 149.95 64.69 167.3C64.71 180.15 70.23 191.27 76.5 202.16C80.11 208.43 83.9 214.71 86.23 221.59C88.73 228.95 89.27 236.63 87.44 244.22C86.45 248.3 84.9 251.93 81.74 254.78C78.93 257.31 75.55 259.18 72.58 261.53C68.84 264.49 65.89 268.22 64.99 273C64.09 277.78 64.67 282.59 64.73 287.37C65.04 311.97 64.69 336.6 64.68 361.2C64.68 365.94 65.1 370.41 67.83 374.45C70.25 378.02 73.74 380.72 77.84 382.08C80.3 382.9 82.83 383.01 85.39 383.01H102.84C125.27 383.01 147.69 383.01 170.12 383.01C190.51 383.01 210.89 383.01 231.28 383.01H241.15C245.01 383.01 245.02 377.01 241.15 377.01H133.37C117.39 377.01 101.4 377.01 85.42 377.01C83.1 377.01 80.87 376.93 78.66 375.99C68.58 371.7 70.71 359.76 70.72 350.9C70.74 326.94 70.58 302.99 70.52 279.03C70.51 274.17 71.57 270.32 75.32 267.02C78.2 264.48 81.57 262.58 84.58 260.2C91.39 254.8 93.84 246.4 94.48 238.01C95.67 222.4 87.4 209.22 80.04 196.2C74.71 186.78 70.72 177.35 70.72 166.38C70.72 155.41 70.72 152.66 70.72 145.8C70.72 122.58 70.72 99.36 70.72 76.13V52.48C70.72 51.32 70.7 50.16 70.72 49C70.85 41.83 76.57 36.12 83.74 36C89.23 35.91 94.72 36 100.21 36C114.23 36 128.26 36 142.28 36C162.32 36 182.36 36 202.4 36C225.86 36 249.32 36 272.78 36C296.24 36 321.82 36 346.34 36C369.33 36 392.32 36 415.31 36C434.25 36 453.19 36 472.13 36C484.51 36 496.88 36 509.26 36H518.08C518.6 36 519.12 36 519.64 36C525.63 36.1 530.91 40.08 532.35 45.96C532.83 47.93 532.71 50.01 532.71 52.03V152.94C532.71 166.86 533.86 180.89 528.85 194.21C525.37 203.45 518.74 211.08 513.36 219.23C507.98 227.38 503.7 237.27 503.38 247.58C503.1 256.67 506.27 264.92 513.25 270.84C519.55 276.19 528.1 280.27 536.51 278.52L532.71 275.63V358.53C532.71 360.34 532.74 362.15 532.71 363.96C532.59 371.15 526.88 376.86 519.69 376.99C506.76 377.22 493.8 376.99 480.86 376.99H408.48C393.48 376.99 378.43 376.66 363.43 376.99C363.19 376.99 362.95 376.99 362.71 376.99C361.09 376.99 359.71 378.36 359.71 379.99C359.71 389.32 359.78 398.64 359.71 407.97C359.68 412.66 355.41 414.86 351.48 412.46C348.66 410.73 345.86 408.96 343.05 407.2L311.85 387.76L299.24 379.9C297.54 378.84 295.56 377.09 293.47 376.98C288.13 376.7 282.71 376.98 277.37 376.98H262.91C259.05 376.98 259.04 382.98 262.91 382.98L262.92 383Z" fill="#969696"/>
<path d="M122.71 85H471.94C476.66 85 481.38 85.09 486.1 85C486.31 85 486.51 85 486.72 85C490.58 85 490.59 79 486.72 79H137.49C132.77 79 128.05 78.91 123.33 79C123.12 79 122.92 79 122.71 79C118.85 79 118.84 85 122.71 85Z" fill="#969696"/>
<path d="M122.71 129H411.49C415.39 129 419.3 129.07 423.2 129C423.37 129 423.54 129 423.71 129C427.57 129 427.58 123 423.71 123H134.93C131.03 123 127.12 122.93 123.22 123C123.05 123 122.88 123 122.71 123C118.85 123 118.84 129 122.71 129Z" fill="#969696"/>
<path d="M122.71 171H328C330.78 171 333.57 171.05 336.35 171C336.47 171 336.59 171 336.71 171C340.57 171 340.58 165 336.71 165H131.42C128.64 165 125.85 164.95 123.07 165C122.95 165 122.83 165 122.71 165C118.85 165 118.84 171 122.71 171V171Z" fill="#969696"/>
<path d="M267.04 241.61C249.81 239.75 232.69 236.87 215.44 235.18C204.17 234.08 192.58 236.07 181.93 239.75C159.7 247.43 138.12 263.33 129.62 285.95C127.51 291.57 126.33 297.64 126.34 303.65C126.35 312.01 129.1 319.65 134.63 325.93C143.98 336.54 158.01 342.99 171.68 345.71C185.35 348.43 200.32 347.91 214.44 345.48C230.36 342.74 245.57 337.19 260.86 332.17C276.15 327.15 291.62 322.2 307.52 319.22C322.28 316.46 337.38 315.07 352.4 315.57C367.42 316.07 381.46 318.73 395.03 324.72C408.55 330.69 422.06 338.62 437.24 338.81C449.58 338.96 462.59 335.18 472.49 327.72C477.4 324.02 481.51 319.49 484.31 313.99C487.3 308.12 488.96 301.71 489.46 295.15C490.46 282.11 486.56 268.5 478.6 258.1C471.4 248.7 461.01 242.45 450.2 238C438.61 233.22 426.21 230.62 413.78 229.24C401.26 227.85 388.55 227.81 376.02 229.17C370.19 229.81 364.37 230.71 358.65 232.04C352.32 233.51 346.27 235.83 340.03 237.6C323.95 242.18 307.31 243.76 290.63 243.3C282.74 243.08 274.88 242.44 267.03 241.61C265.42 241.44 264.03 243.11 264.03 244.61C264.03 246.37 265.41 247.44 267.03 247.61C282.73 249.28 298.56 250.11 314.31 248.53C322.65 247.69 330.92 246.25 339.02 244.11C345.42 242.41 351.6 240 358.02 238.37C369.06 235.58 380.47 234.38 391.84 234.21C404.07 234.02 416.36 235.04 428.33 237.61C439.52 240.02 450.59 243.72 460.34 249.82C470.09 255.92 477.66 264.82 481.21 276.01C484.86 287.5 484.56 300.6 478.9 311.4C473.51 321.7 462.94 327.96 451.99 330.91C446.37 332.42 440.56 333.09 434.75 332.72C428.08 332.3 421.67 330.02 415.54 327.47C408.24 324.43 401.21 320.79 393.9 317.76C387.34 315.04 380.57 313.03 373.58 311.76C359.23 309.14 344.5 308.98 329.99 310.18C315.48 311.38 301.7 313.81 287.97 317.57C271.29 322.14 254.97 327.92 238.5 333.18C224.98 337.5 211.14 340.78 196.91 341.46C183.65 342.09 169.91 340.6 157.71 335.06C151.56 332.26 145.7 328.55 140.86 323.8C138.28 321.27 136.04 318.41 134.54 315.1C132.92 311.53 132.33 307.54 132.33 303.65C132.29 280.61 150.49 262.06 169.52 251.72C179.3 246.41 190.2 242.61 201.29 241.35C206.84 240.72 212.33 240.83 217.88 241.44C226.34 242.37 234.78 243.5 243.22 244.63C251.14 245.69 259.07 246.74 267.02 247.6C268.63 247.77 270.02 246.1 270.02 244.6C270.02 242.83 268.64 241.77 267.02 241.6L267.04 241.61Z" fill="#969696"/>
<path d="M282.27 347.57C289.69 341.81 298.32 337.56 307.37 334.67C316.44 331.79 325.97 330.3 335.51 330.19C345.05 330.08 354.62 331.36 363.75 334.03C372.86 336.71 381.59 340.77 389.13 346.37C380.39 342.97 371.59 340.32 362.64 338.62C353.7 336.9 344.64 336.1 335.58 336.2C326.53 336.3 317.49 337.31 308.58 339.23C299.66 341.13 290.93 343.99 282.27 347.59V347.57Z" fill="#969696"/>
<path d="M244.51 366.3L231.26 393.53L224.64 407.15C222.78 410.97 221 414.95 218.42 418.35C215.84 421.75 212.52 423.59 209.08 425.77C205.64 427.95 202.87 430.34 200.42 433.34C195.65 439.16 192.55 446 189.85 452.96C186.93 460.49 184.63 468.15 180.96 475.16C180.21 476.59 180.59 478.42 182.04 479.26C183.39 480.05 185.39 479.62 186.14 478.18C192.85 465.38 195.15 450.64 203.67 438.87C205.45 436.41 207.97 433.74 210.7 431.87C214.33 429.38 218.3 427.43 221.33 424.17C224.36 420.91 226.36 417.23 228.26 413.4C230.44 408.99 232.57 404.56 234.72 400.13L249.7 369.33C250.41 367.87 250.1 366.09 248.62 365.23C247.3 364.46 245.23 364.84 244.52 366.31L244.51 366.3Z" fill="#969696"/>
<path d="M261.64 374.46C259.3 381.21 257.15 388.03 255.21 394.9C253.27 401.77 251.17 408.68 250.14 415.7C249.6 419.38 249.63 422.94 250.33 426.6C250.96 429.92 252.07 433.12 253.07 436.34C254.95 442.41 255.92 448.54 255.65 454.91C255.35 461.85 253.61 468.75 250.54 474.98C249.83 476.43 250.15 478.23 251.62 479.08C252.94 479.85 255.01 479.46 255.72 478C261.59 466.06 263.24 452.29 260.14 439.33C258.59 432.87 255.48 426.6 255.72 419.82C255.84 416.41 256.71 413.07 257.51 409.77C258.38 406.18 259.3 402.61 260.28 399.04C262.41 391.3 264.79 383.63 267.42 376.05C267.95 374.52 266.81 372.77 265.32 372.36C263.67 371.91 262.16 372.92 261.63 374.46H261.64Z" fill="#969696"/>
<path d="M199.18 440.68C201.24 446.42 205.08 450.68 209.45 454.16C213.85 457.62 218.85 460.3 224.07 462.32C229.31 464.29 234.81 465.63 240.38 465.92C245.94 466.18 251.61 465.4 256.87 462.31C255.12 464.81 252.54 466.78 249.69 468.16C246.83 469.53 243.68 470.31 240.52 470.63C234.18 471.25 227.8 470.15 221.92 467.92C216.06 465.65 210.59 462.23 206.24 457.6C204.08 455.28 202.22 452.66 200.92 449.77C199.64 446.89 198.91 443.73 199.17 440.68H199.18Z" fill="#969696"/>
<path d="M194.1 462.26C196.69 464.59 199.09 466.54 201.6 468.32C204.1 470.09 206.66 471.68 209.3 473.14C211.95 474.6 214.67 475.93 217.51 477.16C220.36 478.41 223.28 479.51 226.55 480.72C223.29 482.02 219.71 482.17 216.27 481.71C212.82 481.22 209.46 480.08 206.4 478.39C203.34 476.69 200.57 474.45 198.35 471.72C196.16 468.99 194.47 465.75 194.1 462.27V462.26Z" fill="#969696"/>
<path d="M261.98 367.11C262.84 367.2 263.68 367.49 264.48 367.91C265.29 368.33 266.06 368.9 266.7 369.85C266.99 370.35 267.25 370.95 267.3 371.68C267.32 372.03 267.3 372.42 267.2 372.77C267.15 372.95 267.1 373.13 267.04 373.3L266.84 373.74C266.29 374.92 265.26 375.81 264.26 376.35C263.25 376.89 262.25 377.17 261.26 377.35C260.28 377.54 259.33 377.57 258.39 377.56C257.45 377.55 256.53 377.42 255.59 377.25C254.68 377.07 253.64 376.74 252.83 376.41C251.15 375.7 249.54 374.85 248.01 373.49C247.26 372.8 246.5 372 245.93 370.89C245.65 370.35 245.39 369.72 245.28 369.03C245.22 368.68 245.18 368.34 245.2 367.98C245.2 367.62 245.23 367.27 245.31 366.97C245.54 365.72 246.29 364.46 247.27 363.72C248.25 362.96 249.33 362.64 250.34 362.54C251.35 362.46 252.32 362.59 253.19 362.93C254.06 363.25 254.86 363.76 255.39 364.45C253.7 364.25 252.21 364.7 251.13 365.38C250.6 365.72 250.22 366.14 250.05 366.51C249.89 366.89 249.92 367.16 249.99 367.5C250.08 367.78 250.2 367.86 250.45 368.15C250.71 368.41 251.1 368.75 251.59 369.07C252.07 369.39 252.63 369.73 253.23 370.01C253.82 370.32 254.45 370.6 255.09 370.86C255.76 371.15 256.25 371.31 256.9 371.48C257.52 371.66 258.19 371.79 258.84 371.9C260.14 372.12 261.46 372.17 262.42 372.02C262.89 371.93 263.21 371.84 263.5 371.66L263.62 371.59C263.62 371.59 263.66 371.57 263.68 371.57C263.74 371.55 263.76 371.53 263.82 371.49C263.92 371.42 263.96 371.23 263.97 370.98C263.96 370.46 263.69 369.78 263.33 369.11C262.96 368.44 262.5 367.78 261.95 367.11H261.98Z" fill="#969696"/>
<path d="M414.27 449.4C412.06 442.36 409.46 435.45 407.61 428.29C407.09 426.29 406.63 424.28 406.24 422.26C406.06 421.3 405.89 420.35 405.75 419.38C405.72 419.15 405.68 418.93 405.65 418.7C405.74 419.39 405.63 418.49 405.62 418.41C405.56 417.87 405.5 417.33 405.45 416.79C405.28 414.91 405.21 413.01 405.29 411.12C405.33 410.23 405.4 409.35 405.5 408.47C405.59 407.66 405.43 408.9 405.51 408.4C405.54 408.2 405.57 407.99 405.61 407.79C405.69 407.31 405.79 406.83 405.9 406.35C406.1 405.49 406.34 404.64 406.64 403.81C406.71 403.6 407.16 402.53 406.86 403.2C407.05 402.77 407.25 402.34 407.47 401.92C407.84 401.22 408.26 400.56 408.7 399.91C408.76 399.81 409.25 399.18 408.8 399.75C408.95 399.56 409.1 399.38 409.26 399.2C409.57 398.83 409.9 398.48 410.25 398.14C410.54 397.85 410.84 397.57 411.16 397.3C411.32 397.16 411.48 397.03 411.64 396.9C412.02 396.58 411.07 397.3 411.74 396.82C412.58 396.23 413.43 395.68 414.34 395.2C414.8 394.96 415.26 394.73 415.74 394.52C415.81 394.49 416.26 394.3 415.83 394.48C416.11 394.37 416.39 394.26 416.67 394.16C417.87 393.72 419.09 393.36 420.34 393.11C424.82 392.23 429.28 393.38 433.07 396.21C436.86 399.04 439.14 403.29 440.78 407.71C446.3 422.59 450.88 437.79 455.57 452.94C456.71 456.62 462.5 455.05 461.36 451.34C456.95 437.12 452.65 422.85 447.57 408.85C445.48 403.07 443.31 397.52 438.75 393.2C434.69 389.36 429.42 386.97 423.8 386.84C414.71 386.63 405.26 391.94 401.6 400.39C398.18 408.29 399.07 417.29 400.8 425.49C402.64 434.2 405.83 442.51 408.5 450.98C409.65 454.65 415.45 453.08 414.29 449.38L414.27 449.4Z" fill="#969696"/>
<path d="M407.38 439.5C411.2 438.92 414.71 438.4 418.14 437.65C421.56 436.92 424.87 436.01 428.11 434.9C431.35 433.79 434.52 432.5 437.68 430.99C440.85 429.49 443.95 427.76 447.34 425.89C445.8 429.45 443.23 432.48 440.24 434.95C437.23 437.42 433.75 439.32 430.05 440.58C426.35 441.84 422.43 442.45 418.54 442.33C414.66 442.19 410.79 441.37 407.39 439.49L407.38 439.5Z" fill="#969696"/>
<path d="M412.85 402.75C410.02 406.79 409.14 411.93 410.09 416.72C410.4 418.26 412.32 419.29 413.78 418.82C415.42 418.29 416.2 416.78 415.88 415.13C415.84 414.93 415.85 414.55 415.75 414.38C415.81 414.86 415.82 414.94 415.78 414.61C415.77 414.48 415.75 414.36 415.74 414.23C415.7 413.79 415.69 413.34 415.69 412.89C415.69 412.38 415.74 411.87 415.78 411.36C415.82 411.03 415.81 411.11 415.75 411.59C415.77 411.46 415.79 411.34 415.81 411.21C415.85 410.99 415.89 410.77 415.94 410.55C416.04 410.08 416.16 409.62 416.31 409.16C416.39 408.92 416.47 408.68 416.56 408.44C416.6 408.32 416.65 408.2 416.7 408.08C416.53 408.47 416.49 408.56 416.58 408.36C417 407.46 417.47 406.6 418.04 405.78C418.94 404.49 418.32 402.39 416.96 401.68C415.42 400.87 413.82 401.38 412.86 402.76L412.85 402.75Z" fill="#969696"/>
<path d="M461.03 384C458.96 401.65 457.68 419.39 456.56 437.12C455.43 454.89 454.46 472.67 452.98 490.42C452.15 500.39 451.15 510.36 449.89 520.29C449.69 521.9 451.41 523.29 452.89 523.29C454.68 523.29 455.69 521.9 455.89 520.29C458.13 502.62 459.52 484.86 460.68 467.1C461.84 449.34 462.79 431.57 464.17 413.82C464.95 403.87 465.86 393.92 467.02 384C467.21 382.39 465.51 381 464.02 381C462.24 381 461.21 382.38 461.02 384H461.03Z" fill="#969696"/>
<path d="M499.63 382.91C499.56 400.64 499.39 418.37 499.11 436.09C498.83 453.82 498.44 471.54 497.94 489.26C497.66 499.24 497.35 509.23 497 519.21C496.87 523.07 502.87 523.07 503 519.21C503.62 501.49 504.13 483.77 504.53 466.05C504.93 448.33 505.23 430.6 505.42 412.87C505.53 402.88 505.6 392.9 505.63 382.91C505.64 379.05 499.64 379.04 499.63 382.91V382.91Z" fill="#969696"/>
<path d="M463.67 391.98C467.06 394.16 470.44 395.04 473.81 395.08C477.18 395.14 480.54 394.47 483.86 393.45C487.17 392.41 490.43 391 493.59 389.31C496.76 387.59 499.81 385.67 502.82 383.03C502.43 385.01 501.5 386.87 500.38 388.57C499.24 390.27 497.85 391.79 496.33 393.15C493.26 395.85 489.62 397.93 485.65 399.17C481.69 400.39 477.31 400.81 473.1 399.72C471.02 399.17 469.01 398.24 467.35 396.9C465.69 395.56 464.39 393.86 463.68 391.97L463.67 391.98Z" fill="#969696"/>
<path d="M464.9 412.15C468.32 413.03 471.42 413.83 474.51 414.35C477.58 414.89 480.59 415.19 483.54 415.16C486.5 415.12 489.39 414.77 492.26 413.95C495.15 413.14 497.96 411.82 501.03 410.04C499.91 413.41 497.38 416.31 494.21 418.24C491.03 420.18 487.27 421.13 483.59 421.16C479.9 421.19 476.28 420.35 473.04 418.83C469.82 417.29 466.91 415.09 464.9 412.16V412.15Z" fill="#969696"/>
<path d="M460.13 432.01C462.98 435.12 466.22 436.93 469.67 437.99C473.11 439.05 476.74 439.41 480.38 439.34C484.02 439.24 487.69 438.7 491.25 437.66C494.82 436.6 498.26 435.11 501.56 432.51C500.98 434.55 499.76 436.41 498.28 438.01C496.79 439.61 495.01 440.93 493.1 441.99C489.26 444.1 484.91 445.22 480.52 445.33C476.14 445.42 471.63 444.51 467.72 442.27C465.78 441.14 464.02 439.68 462.67 437.91C461.33 436.14 460.39 434.1 460.13 432V432.01Z" fill="#969696"/>
<path d="M458.98 455.39C462.14 458.84 465.61 461.34 469.39 462.94C473.15 464.54 477.18 465.28 481.15 465.19C485.13 465.09 489.05 464.14 492.58 462.2C496.13 460.28 499.19 457.29 501.79 453.4C501.59 458.08 499.17 462.82 495.29 466.06C491.42 469.33 486.33 471.08 481.3 471.18C476.26 471.3 471.19 469.85 467.09 467.04C462.99 464.24 459.9 460 458.98 455.39V455.39Z" fill="#969696"/>
<path d="M511.55 227.07C514.06 225.82 516.96 225.21 519.93 225.32C521.42 225.36 522.9 225.65 524.36 226.04C525.79 226.5 527.22 227.06 528.53 227.83C531.18 229.32 533.51 231.36 535.39 233.69C535.86 234.28 536.34 234.86 536.74 235.49C537.17 236.11 537.59 236.73 537.94 237.3C538.67 238.47 539.38 239.66 540.09 240.86C542.86 245.69 545.28 250.99 546.28 256.79C546.74 259.69 546.79 262.71 546.16 265.6C545.54 268.48 544.24 271.19 542.36 273.26C543.92 267.82 543.32 262.72 541.7 257.9C540.03 253.07 537.54 248.48 534.89 243.84L532.88 240.34C532.54 239.73 532.22 239.2 531.9 238.68C531.59 238.14 531.22 237.65 530.89 237.13C529.5 235.09 527.84 233.28 525.94 231.74C522.18 228.59 517.18 227.01 511.56 227.06L511.55 227.07Z" fill="#969696"/>
<path d="M518.41 216.35C523.02 213.53 528.62 212.31 534.17 212.45C539.73 212.59 545.29 214.08 550.25 216.71C555.21 219.33 559.6 223.12 562.76 227.74C565.91 232.35 567.82 237.82 567.72 243.22C565.36 238.39 562.52 234.23 559.09 230.7C555.68 227.17 551.73 224.28 547.44 222C543.15 219.73 538.52 218.08 533.67 217.12C528.81 216.15 523.76 215.91 518.41 216.35V216.35Z" fill="#969696"/>
<path d="M529.09 201.9C531.53 198.75 534.91 196.45 538.54 194.8C542.19 193.17 546.17 192.21 550.25 192.07C554.31 191.93 558.51 192.62 562.27 194.41C566.01 196.17 569.27 199.13 570.81 202.82C567.38 200.82 564.09 199.56 560.71 198.86C557.34 198.15 553.92 197.96 550.46 198.07C547 198.18 543.5 198.62 539.98 199.28C536.44 199.94 532.91 200.84 529.1 201.9H529.09Z" fill="#969696"/>
<path d="M536.57 161C552.13 170.78 563.48 186.79 567.57 204.68C569.75 214.19 569.81 224.22 567.87 233.78C565.93 243.34 562.27 252.94 556.37 260.43C550.27 268.18 541.4 273.09 531.59 273.18C527.73 273.22 527.72 279.22 531.59 279.18C541.56 279.08 550.99 274.82 557.93 267.71C564.87 260.6 569.85 250 572.55 240.05C578.1 219.55 574.85 197.36 563.38 179.46C557.29 169.95 549.16 161.82 539.59 155.81C536.31 153.75 533.3 158.94 536.56 160.99L536.57 161Z" fill="#969696"/>
<path d="M134.38 384.03L134.88 441.22C135.05 460.12 135.15 479.01 135.38 497.91C135.51 508.57 136.38 519.22 136.39 529.89C136.39 533.75 142.39 533.76 142.39 529.89C142.38 520.46 141.7 511.06 141.45 501.64C141.2 492.13 141.24 482.61 141.16 473.1L140.66 416.25L140.38 384.03C140.35 380.17 134.35 380.16 134.38 384.03Z" fill="#969696"/>
<path d="M169.64 381.78C171.22 400.75 172.99 419.7 174.95 438.64C176.91 457.57 179.06 476.49 181.4 495.38C182.73 506.16 184.13 516.93 185.59 527.7C185.81 529.31 187.87 530.18 189.28 529.8C191.01 529.32 191.59 527.72 191.38 526.11C188.86 507.43 186.53 488.72 184.38 469.99C182.23 451.24 180.27 432.47 178.49 413.69C177.48 403.06 176.54 392.43 175.65 381.79C175.52 380.18 174.37 378.79 172.65 378.79C171.13 378.79 169.51 380.17 169.65 381.79L169.64 381.78Z" fill="#969696"/>
<path d="M136.71 386.17C139.81 387.92 142.7 389.25 145.66 390.39C148.6 391.51 151.54 392.4 154.49 392.98C157.44 393.54 160.37 393.8 163.29 393.48C166.22 393.17 169.11 392.2 172.18 390.34C171.12 393.78 168.1 396.66 164.52 398.04C160.93 399.46 156.98 399.58 153.36 398.87C149.72 398.16 146.31 396.63 143.38 394.5C140.49 392.36 137.94 389.57 136.72 386.18L136.71 386.17Z" fill="#969696"/>
<path d="M137.79 423.64C141.33 424.85 144.53 425.27 147.56 424.87C150.59 424.48 153.48 423.41 156.35 422.02C159.22 420.63 162.05 418.93 164.91 417.11C167.79 415.3 170.65 413.34 173.86 411.46C172.55 414.96 170.44 418.02 167.93 420.72C165.4 423.41 162.41 425.74 158.95 427.42C155.51 429.08 151.48 430.08 147.45 429.56C145.45 429.29 143.5 428.63 141.83 427.6C140.16 426.57 138.76 425.22 137.78 423.63L137.79 423.64Z" fill="#969696"/>
<path d="M138.55 444.11C141.42 446.59 144.43 447.86 147.57 448.72C150.7 449.56 153.95 449.95 157.22 450.07C160.5 450.18 163.8 450.02 167.11 449.55C170.43 449.06 173.68 448.34 177.12 446.77C176.29 448.49 174.94 449.96 173.43 451.17C171.91 452.38 170.19 453.34 168.39 454.08C164.79 455.55 160.89 456.2 157.01 456.06C153.13 455.91 149.21 454.99 145.73 453.04C144 452.06 142.4 450.81 141.11 449.29C139.84 447.77 138.87 445.98 138.55 444.1V444.11Z" fill="#969696"/>
<path d="M138.82 469.07C142.74 470.55 146.43 471.75 150.16 472.71C153.87 473.67 157.57 474.38 161.2 474.62C164.82 474.84 168.36 474.62 171.56 473.36C174.78 472.15 177.61 469.7 180.11 466.3C180.06 468.4 179.48 470.53 178.41 472.49C177.34 474.45 175.73 476.19 173.81 477.5C171.89 478.82 169.69 479.66 167.47 480.15C165.24 480.63 162.99 480.74 160.8 480.6C156.4 480.31 152.23 479.02 148.45 477.09C144.71 475.14 141.23 472.53 138.81 469.06L138.82 469.07Z" fill="#969696"/>
<path d="M37.63 247.16C38.59 242.17 41.09 237.5 44.38 233.52C47.7 229.54 51.85 226.23 56.47 223.82C61.08 221.4 66.17 219.87 71.33 219.41C76.48 218.97 81.75 219.58 86.39 221.65C81.35 222.06 76.66 222.8 72.14 224.06C67.63 225.3 63.33 227 59.25 229.13C55.17 231.26 51.31 233.83 47.73 236.82C44.12 239.81 40.84 243.25 37.64 247.16H37.63Z" fill="#969696"/>
<path d="M33.48 230.67C33.88 225.7 35.44 220.87 37.78 216.4C40.14 211.94 43.33 207.85 47.22 204.5C51.09 201.14 55.68 198.56 60.55 197.05C65.42 195.55 70.57 195.09 75.48 195.99C70.76 197.58 66.4 199.26 62.34 201.42C58.29 203.55 54.55 206.1 51.14 209.05C47.72 212 44.61 215.33 41.74 218.96C38.84 222.59 36.24 226.53 33.49 230.67H33.48Z" fill="#969696"/>
<path d="M27.86 212.79C27.52 207.76 28.85 202.65 31.06 198.04C33.3 193.42 36.47 189.26 40.22 185.76C43.97 182.26 48.33 179.42 53.04 177.45C57.74 175.5 62.83 174.37 67.86 174.74C63.3 176.84 59.15 179.07 55.23 181.63C51.32 184.18 47.68 187.03 44.31 190.16C40.94 193.3 37.85 196.71 35.11 200.45C32.35 204.19 29.98 208.25 27.87 212.8L27.86 212.79Z" fill="#969696"/>
<path d="M64.83 146.72C54.4 150.1 45.01 156.57 38.15 165.13C34.61 169.54 31.76 174.33 29.61 179.57C27.14 185.57 25.95 191.99 25.43 198.44C24.9 205.02 25.07 211.69 25.64 218.26C26.21 224.79 27.26 231.33 29.26 237.59C32.94 249.07 39.91 259.58 50.64 265.55C56.76 268.96 63.53 270.5 70.38 268.51C77.23 266.52 82.86 262.27 87.56 257.3C90.21 254.49 85.98 250.24 83.32 253.06C79.7 256.89 75.34 260.41 70.33 262.22C67.91 263.09 65.48 263.58 62.9 263.44C60.32 263.3 57.97 262.46 55.76 261.43C46.04 256.87 39.32 248.01 35.76 238.05C31.74 226.83 30.82 214.53 31.2 202.7C31.57 191.43 34.27 180.81 40.76 171.57C47.25 162.33 56.18 155.83 66.43 152.51C67.97 152.01 68.97 150.43 68.53 148.82C68.11 147.31 66.39 146.22 64.84 146.72H64.83Z" fill="#969696"/>
<path d="M203.21 526.5V517.5C203.21 515.93 201.83 514.43 200.21 514.5C198.59 514.57 197.21 515.82 197.21 517.5V526.5C197.21 528.07 198.59 529.57 200.21 529.5C201.83 529.43 203.21 528.18 203.21 526.5Z" fill="#969696"/>
<path d="M215.71 523V514C215.71 512.43 214.33 510.93 212.71 511C211.09 511.07 209.71 512.32 209.71 514V523C209.71 524.57 211.09 526.07 212.71 526C214.33 525.93 215.71 524.68 215.71 523Z" fill="#969696"/>
<path d="M442.71 519V507C442.71 505.43 441.33 503.93 439.71 504C438.09 504.07 436.71 505.32 436.71 507V519C436.71 520.57 438.09 522.07 439.71 522C441.33 521.93 442.71 520.68 442.71 519Z" fill="#969696"/>
<path d="M429.71 517V502C429.71 500.43 428.33 498.93 426.71 499C425.09 499.07 423.71 500.32 423.71 502V517C423.71 518.57 425.09 520.07 426.71 520C428.33 519.93 429.71 518.68 429.71 517Z" fill="#969696"/>
<path d="M415.71 515V500C415.71 498.43 414.33 496.93 412.71 497C411.09 497.07 409.71 498.32 409.71 500V515C409.71 516.57 411.09 518.07 412.71 518C414.33 517.93 415.71 516.68 415.71 515Z" fill="#969696"/>
<path d="M401.71 514V499C401.71 497.43 400.33 495.93 398.71 496C397.09 496.07 395.71 497.32 395.71 499V514C395.71 515.57 397.09 517.07 398.71 517C400.33 516.93 401.71 515.68 401.71 514Z" fill="#969696"/>
<path d="M387.71 512V497C387.71 495.43 386.33 493.93 384.71 494C383.09 494.07 381.71 495.32 381.71 497V512C381.71 513.57 383.09 515.07 384.71 515C386.33 514.93 387.71 513.68 387.71 512Z" fill="#969696"/>
<path d="M372.71 511V496C372.71 494.43 371.33 492.93 369.71 493C368.09 493.07 366.71 494.32 366.71 496V511C366.71 512.57 368.09 514.07 369.71 514C371.33 513.93 372.71 512.68 372.71 511Z" fill="#969696"/>
<path d="M357.71 510V495C357.71 493.43 356.33 491.93 354.71 492C353.09 492.07 351.71 493.32 351.71 495V510C351.71 511.57 353.09 513.07 354.71 513C356.33 512.93 357.71 511.68 357.71 510Z" fill="#969696"/>
<path d="M341.71 510V495C341.71 493.43 340.33 491.93 338.71 492C337.09 492.07 335.71 493.32 335.71 495V510C335.71 511.57 337.09 513.07 338.71 513C340.33 512.93 341.71 511.68 341.71 510Z" fill="#969696"/>
<path d="M324.71 510V495C324.71 493.43 323.33 491.93 321.71 492C320.09 492.07 318.71 493.32 318.71 495V510C318.71 511.57 320.09 513.07 321.71 513C323.33 512.93 324.71 511.68 324.71 510Z" fill="#969696"/>
<path d="M307.71 511V496C307.71 494.43 306.33 492.93 304.71 493C303.09 493.07 301.71 494.32 301.71 496V511C301.71 512.57 303.09 514.07 304.71 514C306.33 513.93 307.71 512.68 307.71 511Z" fill="#969696"/>
<path d="M290.71 512V497C290.71 495.43 289.33 493.93 287.71 494C286.09 494.07 284.71 495.32 284.71 497V512C284.71 513.57 286.09 515.07 287.71 515C289.33 514.93 290.71 513.68 290.71 512Z" fill="#969696"/>
<path d="M274.71 514V499C274.71 497.43 273.33 495.93 271.71 496C270.09 496.07 268.71 497.32 268.71 499V514C268.71 515.57 270.09 517.07 271.71 517C273.33 516.93 274.71 515.68 274.71 514Z" fill="#969696"/>
<path d="M257.71 516V501C257.71 499.43 256.33 497.93 254.71 498C253.09 498.07 251.71 499.32 251.71 501V516C251.71 517.57 253.09 519.07 254.71 519C256.33 518.93 257.71 517.68 257.71 516Z" fill="#969696"/>
<path d="M241.71 520V505C241.71 503.43 240.33 501.93 238.71 502C237.09 502.07 235.71 503.32 235.71 505V520C235.71 521.57 237.09 523.07 238.71 523C240.33 522.93 241.71 521.68 241.71 520Z" fill="#969696"/>
<path d="M228.71 523V508C228.71 506.43 227.33 504.93 225.71 505C224.09 505.07 222.71 506.32 222.71 508V523C222.71 524.57 224.09 526.07 225.71 526C227.33 525.93 228.71 524.68 228.71 523Z" fill="#969696"/>
</g>
<defs>
<clipPath id="clip0_2_2">
<rect width="550.2" height="540.35" fill="white" transform="translate(25 30)"/>
</clipPath>
</defs>
</svg>
